<?xml version="1.0" encoding="utf-8"?>
<!-- Generator: Adobe Illustrator 15.1.0, SVG Export Plug-In . SVG Version: 6.00 Build 0)  -->
<!DOCTYPE svg PUBLIC "-//W3C//DTD SVG 1.1//EN" "http://www.w3.org/Graphics/SVG/1.1/DTD/svg11.dtd">
<svg version="1.1"
	 id="svg2" sodipodi:docname="logo_01.svg" inkscape:version="0.48.4 r9939" xmlns:dc="http://purl.org/dc/elements/1.1/" xmlns:cc="http://creativecommons.org/ns#" xmlns:rdf="http://www.w3.org/1999/02/22-rdf-syntax-ns#" xmlns:svg="http://www.w3.org/2000/svg" xmlns:sodipodi="http://sodipodi.sourceforge.net/DTD/sodipodi-0.dtd" xmlns:inkscape="http://www.inkscape.org/namespaces/inkscape"
	 xmlns="http://www.w3.org/2000/svg" xmlns:xlink="http://www.w3.org/1999/xlink" x="0px" y="0px" width="335.75px" height="97.5px"
	 viewBox="0 0 335.75 97.5" enable-background="new 0 0 335.75 97.5" xml:space="preserve">
<sodipodi:namedview  id="base" inkscape:window-y="-8" inkscape:window-x="54" inkscape:window-height="1057" inkscape:window-width="1858" inkscape:current-layer="layer1" inkscape:document-units="px" inkscape:pageshadow="2" inkscape:pageopacity="0.0" inkscape:window-maximized="1" showgrid="false" inkscape:cy="612.96051" inkscape:cx="1337.1067" inkscape:zoom="1.979899" borderopacity="1.0" bordercolor="#666666" pagecolor="#ffffff">
	</sodipodi:namedview>
<path fill="#670097" stroke="#670097" stroke-width="0.5" stroke-miterlimit="10" d="M21.73145,32.89258
	c2.33301-1.76758,9.7998-0.96484,19.95117,1.4668c-2.2793-2.66797-4.48535-5.31445-6.58984-7.90625
	c-2.1084,0.17578-4.14844,0.69336-6.09375,1.61133c-2.07129,0.97852-3.19922,1.54688-3.34375,1.6875v-2.3125h-11.4375v61.125
	h7.44434C18.04199,61.72266,17.04492,36.44727,21.73145,32.89258z"/>
<path fill="#3E2A90" stroke="#3E2A90" stroke-width="0.5" stroke-miterlimit="10" d="M80.15527,28.9082l0.34375,8
	c0.09473-0.00781,1.07617-0.07617,2.9375-0.1875c1.10254-0.06445,2.33008-0.13477,3.6543-0.20313
	c2.15234-3.22852,4.45313-6.55664,6.85449-9.92969c-2.90723,0.20313-5.62012,0.55469-8.13379,1.07031
	C82.26465,28.38672,80.36719,28.80469,80.15527,28.9082z"/>
<path fill="#3E2A90" stroke="#3E2A90" stroke-width="0.5" stroke-miterlimit="10" d="M71.18652,10.2207H59.65527v29.22266
	c3.7373,1.18555,7.60254,2.47266,11.53125,3.8418V10.2207z"/>
<path fill="#3E2A90" stroke="#3E2A90" stroke-width="0.5" stroke-miterlimit="10" d="M50.9248,36.80664
	c-0.67676-2.12305-1.57227-3.90234-2.70703-5.30469c-2.81543-3.47461-7.04102-5.16992-12.71875-5.09375
	c-0.13672,0.00977-0.27051,0.0332-0.40625,0.04492c2.10449,2.5918,4.31055,5.23828,6.58984,7.90625
	C44.56641,35.05078,47.66309,35.87305,50.9248,36.80664z"/>
<path fill="#B400C5" stroke="#B400C5" stroke-width="0.5" stroke-miterlimit="10" d="M71.18652,43.28516
	c-3.92871-1.36914-7.79395-2.65625-11.53125-3.8418V70.4707h11.53125V43.28516z"/>
<path fill="#B400C5" stroke="#B400C5" stroke-width="0.5" stroke-miterlimit="10" d="M21.73145,32.89258
	c-4.68652,3.55469-3.68945,28.83008-0.06934,55.67188h4.08691v-17.75c0.09863,0.0293,0.88867,0.14258,2.375,0.34375
	s3.08984,0.31445,4.78125,0.34375c6.57617,0.19141,11.48828-1.32227,14.71875-4.5625
	c3.22949-3.24023,4.82227-9.36719,4.8125-18.34375c0.00195-4.73242-0.50977-8.64844-1.51172-11.78906
	c-3.26172-0.93359-6.3584-1.75586-9.24219-2.44727C31.53125,31.92773,24.06445,31.125,21.73145,32.89258z M38.96777,58.4707
	c-1.24512,2.05469-3.5625,3.0957-6.9375,3.0625c-1.31641-0.02148-2.65039-0.13086-4.03125-0.28125s-2.13867-0.22852-2.25-0.25
	v-22.5625c0.0918-0.07227,0.91504-0.3418,2.4375-0.84375s3.20605-0.80273,5.0625-0.875
	c2.30762-0.04883,4.1084,0.85352,5.4375,2.6875c1.32813,1.83398,2.03516,4.88867,2.0625,9.1875
	C40.81738,53.125,40.21191,56.41602,38.96777,58.4707z"/>
<path fill="#2758B5" stroke="#2758B5" stroke-width="0.5" stroke-miterlimit="10" d="M135.40527,42.37695
	c-1.30176-0.48438-1.90918-1.18945-1.8125-2.125c-0.06055-1.16016,0.33496-2.02539,1.15625-2.59375
	c0.7832-0.54102,2.29883-0.81641,4.54785-0.83789c1.21289-4.28711,2.47363-7.75,3.75195-10.10156
	c-1.50977-0.14258-2.95117-0.23047-4.2998-0.24805c-4.64648-0.03906-8.53613,1.06055-11.6875,3.28125s-4.7793,5.79688-4.90625,10.75
	c0.01074,4.59766,1.19434,7.82422,3.59375,9.625c2.24902,1.6875,5.50879,2.85547,9.74316,3.52344
	c0.70508-3.78711,1.44434-7.34961,2.21094-10.61523C136.7207,42.79883,135.94531,42.57813,135.40527,42.37695z"/>
<path fill="#2758B5" stroke="#2758B5" stroke-width="0.5" stroke-miterlimit="10" d="M134.21777,60.97656
	c-0.58789-0.04688-1.19824-0.10156-1.84375-0.16211c-2.33594-0.2207-4.43262-0.43555-6.28125-0.65625
	s-2.80176-0.35742-2.90625-0.375l-0.34375,9.65625c0.08594,0.02539,1.04883,0.19922,2.875,0.53125
	c1.82715,0.33203,3.99707,0.66797,6.53125,1c0.15625,0.02148,0.30566,0.03516,0.46094,0.05469
	C133.18359,67.59375,133.6875,64.23047,134.21777,60.97656z"/>
<path fill="#2758B5" stroke="#2758B5" stroke-width="0.5" stroke-miterlimit="10" d="M87.09082,36.51758
	c0.91113-0.04688,1.86133-0.09375,2.87695-0.14063c2.49219-0.11133,4.73047-0.14648,6.71875-0.15625
	c1.71777-0.03711,3.00781,0.27539,3.84375,0.9375s1.25,1.875,1.25,3.6875v2.6875l-9.21875,0.6875
	c-4.77051,0.24219-8.47559,1.29883-11.09375,3.1875s-3.93262,5.20703-3.96875,9.96875
	c-0.00879,4.58008,1.08398,8.09375,3.28125,10.5s5.55176,3.60742,10.0625,3.625c3.35156-0.125,6.26953-0.62109,8.75-1.5
	s3.78223-1.375,3.90625-1.5c1.73438,1.17969,3.5127,1.97852,5.34375,2.40625s4.1582,0.61914,6.96875,0.59375l0.34375-8.6875
	c-1.125-0.19531-1.88965-0.60352-2.25-1.21875s-0.5459-1.57227-0.59375-2.84375V40.8457c0.04688-5.00977-1.18555-8.66992-3.65625-11
	c-2.47168-2.33008-6.48242-3.46484-12.03125-3.4375c-1.26465,0.03125-2.4834,0.0957-3.67871,0.17969
	C91.54395,29.96094,89.24316,33.28906,87.09082,36.51758z M101.78027,60.75195c-0.12012,0.05664-1.07715,0.28516-2.84375,0.6875
	s-3.62305,0.63086-5.59375,0.6875c-1.53125-0.02344-2.63184-0.49023-3.28125-1.40625s-0.95508-2.1582-0.9375-3.6875
	c0.0127-1.54102,0.43945-2.69141,1.28125-3.46875c0.84082-0.77734,2.01172-1.22266,3.53125-1.34375l7.84375-0.6875V60.75195z"/>
<path fill="#C0ED19" stroke="#C0ED19" stroke-width="0.5" stroke-miterlimit="10" d="M310.04102,44.50977
	c4.28125,8.12109,6.65234,14.38867,5.70117,16.76172c-1.22461,3.05273-10.58008,6.28711-23.0918,9.04883
	c1.3457,0.2168,2.82422,0.43555,4.47266,0.65039c2.53516,0.33203,4.91602,0.50586,7.125,0.53125
	c5.42969,0.04883,9.6582-1.00781,12.6875-3.1875s4.54492-5.76172,4.59375-10.75c0.06055-4.25-0.92969-7.36523-3-9.3125
	C316.75586,46.58203,313.92188,45.33984,310.04102,44.50977z"/>
<path fill="#C0ED19" stroke="#C0ED19" stroke-width="0.5" stroke-miterlimit="10" d="M310.7793,37.1582
	c2.42188,0.2207,4.57031,0.4668,6.4375,0.6875s2.83789,0.32617,2.9375,0.34375l0.1875-9.5625
	c-0.0918-0.02734-1.0918-0.2168-2.96875-0.5625s-4.08984-0.68555-6.65625-1.03125c-2.56445-0.3457-4.93555-0.53516-7.09375-0.5625
	c-1.41797-0.01172-2.75586,0.0957-4.03516,0.29492c2.20703,3.45898,4.28906,6.84766,6.17773,10.07617
	C307.24414,36.88867,308.91211,36.98828,310.7793,37.1582z"/>
<path fill="#C0ED19" stroke="#C0ED19" stroke-width="0.5" stroke-miterlimit="10" d="M277.3418,81.5957
	c1.64648-2.20313,2.6582-5.16211,3.0293-8.88477c-3.95898,0.68164-8.05078,1.30859-12.16016,1.86719
	c-0.20703,0.55664-0.45117,1.05469-0.74414,1.48633c-1.11133,1.64844-3.4082,3.55469-6.84375,5.6875l4.5625,8.53125
	C271.05859,87.48828,275.11719,84.57422,277.3418,81.5957z"/>
<path fill="#367FC6" stroke="#367FC6" stroke-width="0.5" stroke-miterlimit="10" d="M156.65527,57.56445
	c0.06055-4.25-0.93066-7.36523-3-9.3125s-5.56836-3.31836-10.5-4.125c-2.25977-0.39648-4.06836-0.75977-5.45215-1.0918
	c-0.7666,3.26563-1.50586,6.82813-2.21094,10.61523c0.28418,0.04492,0.55859,0.09375,0.85059,0.13281
	c3.83398,0.61523,6.30469,1.19922,7.40625,1.78125s1.59473,1.33398,1.46875,2.25c0.05371,1.11914-0.43652,1.97266-1.4375,2.53125
	c-1.00098,0.56055-2.83008,0.84375-5.53125,0.84375c-1.13574-0.01172-2.4873-0.08984-4.03125-0.21289
	c-0.53027,3.25391-1.03418,6.61719-1.50781,10.04883c2.36133,0.29297,4.59082,0.45313,6.66406,0.47656
	c5.42871,0.04883,9.6582-1.00781,12.6875-3.1875S156.60645,62.55273,156.65527,57.56445z"/>
<path fill="#367FC6" stroke="#367FC6" stroke-width="0.5" stroke-miterlimit="10" d="M139.62402,36.81445
	c1.76563,0.01758,3.85938,0.12305,6.28125,0.34375s4.57031,0.4668,6.4375,0.6875s2.83691,0.32617,2.9375,0.34375l0.1875-9.5625
	c-0.0918-0.02734-1.0918-0.2168-2.96875-0.5625s-4.09082-0.68555-6.65625-1.03125c-0.96191-0.12891-1.8877-0.22852-2.79395-0.31445
	c-1.27832,2.35156-2.53906,5.81445-3.75195,10.10156C139.40723,36.81836,139.50977,36.81445,139.62402,36.81445z"/>
<path fill="#367FC6" stroke="#367FC6" stroke-width="0.5" stroke-miterlimit="10" d="M180.2168,71.50195
	c1.68359-0.05273,3.53516-0.2793,5.53125-0.65625c0.00391,0,0.00586,0,0.00781,0
	c-6.61328-8.40625-13.19531-17.36914-18.97559-25.86328V55.1582c-0.0918,6.10547,0.84863,10.36719,2.81152,12.8125
	C171.55664,70.41797,175.10156,71.5957,180.2168,71.50195z"/>
<rect x="196.3418" y="27.43945" fill="#42A0A1" stroke="#42A0A1" stroke-width="0.5" stroke-miterlimit="10" width="11.53125" height="43.03125"/>
<rect x="196.3418" y="10.2207" fill="#42A0A1" stroke="#42A0A1" stroke-width="0.5" stroke-miterlimit="10" width="11.53125" height="11.6875"/>
<path fill="#42A0A1" stroke="#42A0A1" stroke-width="0.5" stroke-miterlimit="10" d="M218.74805,31.75195
	c-2.89258,3.5957-4.32617,9.19336-4.28125,16.78125c-0.04492,6.48633,0.87109,11.52539,2.70117,15.16797
	c1.89258-9.2793,6.4375-23.10938,11.86523-37.07422C224.49805,27.18164,221.0625,28.875,218.74805,31.75195z"/>
<path fill="#42A0A1" stroke="#42A0A1" stroke-width="0.5" stroke-miterlimit="10" d="M188.99805,70.2207l-0.5-9.21875
	c-0.12109,0.00781-0.91797,0.04297-2.375,0.09375c-1.45508,0.05078-2.85938,0.08594-4.1875,0.09375
	c-1.73242,0.00781-2.7793-0.50586-3.15625-1.53125s-0.51172-2.63672-0.4375-4.78125v-17.625h10.5625v-9.8125h-10.5625V15.4707
	h-11.56152v11.96875h-5.0625v9.8125h5.0625v7.73047c5.78027,8.49414,12.3623,17.45703,18.97559,25.86328
	C187.74805,70.46875,188.82031,70.27539,188.99805,70.2207z"/>
<path fill="#A0D349" stroke="#A0D349" stroke-width="0.5" stroke-miterlimit="10" d="M315.74219,61.27148
	c0.95117-2.37305-1.41992-8.64063-5.70117-16.76172c-0.64453-0.13867-1.30859-0.26758-2.01172-0.38281
	c-3.86328-0.67773-6.44727-1.26563-7.75-1.75c-1.30078-0.48438-1.9082-1.18945-1.8125-2.125
	c-0.06055-1.16016,0.33594-2.02539,1.15625-2.59375c0.82227-0.56836,2.43945-0.8457,4.875-0.84375
	c0.4043,0.00391,0.83008,0.01367,1.26758,0.02734c-1.88867-3.22852-3.9707-6.61719-6.17773-10.07617
	c-2.9082,0.45508-5.46289,1.44336-7.65234,2.98633c-3.15039,2.2207-4.7793,5.79688-4.90625,10.75
	c0.01172,4.59766,1.19531,7.82422,3.59375,9.625c2.40039,1.80078,5.93555,3.01758,10.59375,3.65625
	c3.83398,0.61523,6.30469,1.19922,7.40625,1.78125s1.5957,1.33398,1.46875,2.25c0.05469,1.11914-0.43555,1.97266-1.4375,2.53125
	c-1,0.56055-2.83008,0.84375-5.53125,0.84375c-1.56836-0.01758-3.53711-0.1543-5.875-0.375
	c-2.33594-0.2207-4.43164-0.43555-6.28125-0.65625c-1.84766-0.2207-2.80078-0.35742-2.90625-0.375l-0.34375,9.65625
	c0.08594,0.02539,1.04883,0.19922,2.875,0.53125c0.63867,0.11719,1.33398,0.23242,2.05859,0.34961
	C305.16211,67.55859,314.51758,64.32422,315.74219,61.27148z"/>
<path fill="#A0D349" stroke="#A0D349" stroke-width="0.5" stroke-miterlimit="10" d="M280.5293,68.50195v-41.0625h-11.5625V68.4082
	c0.06836,2.55664-0.17773,4.60742-0.75586,6.16992c4.10938-0.55859,8.20117-1.18555,12.16016-1.86719
	C280.50195,71.40234,280.55859,70.00195,280.5293,68.50195z"/>
<rect x="252.3418" y="60.18945" fill="#A0D349" stroke="#A0D349" stroke-width="0.5" stroke-miterlimit="10" width="10.40625" height="10.28125"/>
<path fill="#A0D349" stroke="#A0D349" stroke-width="0.5" stroke-miterlimit="10" d="M246.06055,60.50195
	c-0.21094,0.0293-1.45117,0.14258-3.75,0.34375s-4.37109,0.31445-6.21875,0.34375c-4.02734,0.07617-6.72461-0.83594-8.0625-2.71875
	s-1.94727-5.19141-1.84375-9.9375c-0.10742-4.25781,0.5-7.29883,1.8125-9.125s3.97656-2.73438,8-2.6875
	c1.85156,0.0293,3.92578,0.14258,6.25,0.34375s3.59766,0.31445,3.8125,0.34375l0.34375-9.125
	c-0.26172-0.07813-1.91797-0.38477-5-0.9375c-3.08008-0.55273-6.02344-0.85938-8.78125-0.9375
	c-1.27344-0.00586-2.45703,0.08008-3.58984,0.21875c-5.42773,13.96484-9.97266,27.79492-11.86523,37.07422
	c0.4375,0.87109,0.91211,1.6875,1.45508,2.39453c2.81836,3.66992,7.39258,5.46094,13.75,5.40625
	c1.69141-0.02148,3.61914-0.17773,5.78125-0.46875s4.06055-0.58398,5.6875-0.875s2.47852-0.44727,2.5625-0.46875L246.06055,60.50195
	z"/>
<rect x="268.9668" y="10.2207" fill="#A0D349" stroke="#A0D349" stroke-width="0.5" stroke-miterlimit="10" width="11.5625" height="11.6875"/>
</svg>
