<?xml version="1.0" encoding="utf-8"?>
<!-- Generator: Adobe Illustrator 15.1.0, SVG Export Plug-In  -->
<!DOCTYPE svg PUBLIC "-//W3C//DTD SVG 1.1//EN" "http://www.w3.org/Graphics/SVG/1.1/DTD/svg11.dtd" [
	<!ENTITY ns_flows "http://ns.adobe.com/Flows/1.0/">
]>
<svg version="1.1"
	 xmlns="http://www.w3.org/2000/svg" xmlns:xlink="http://www.w3.org/1999/xlink" xmlns:a="http://ns.adobe.com/AdobeSVGViewerExtensions/3.0/"
	 x="0px" y="0px" width="336px" height="98px" viewBox="-13.9678 -9.9707 336 98" enable-background="new -13.9678 -9.9707 336 98"
	 xml:space="preserve">
<defs>
</defs>
<path fill="#670097" stroke="#670097" stroke-width="0.5" stroke-miterlimit="10" d="M7.7637,22.9219
	c2.333-1.7676,9.7998-0.9648,19.9512,1.4668c-2.2793-2.668-4.4854-5.3145-6.5898-7.9063c-2.1084,0.1758-4.1484,0.6934-6.0938,1.6113
	c-2.0713,0.9785-3.1992,1.5469-3.3438,1.6875v-2.3125H0.25v61.125h7.4443C4.0742,51.752,3.0771,26.4766,7.7637,22.9219z"/>
<path fill="#3E2A90" stroke="#3E2A90" stroke-width="0.5" stroke-miterlimit="10" d="M66.1875,18.9375l0.3438,8
	c0.0947-0.0078,1.0762-0.0762,2.9375-0.1875c1.1025-0.0645,2.3301-0.1348,3.6543-0.2031c2.1523-3.2285,4.4531-6.5566,6.8545-9.9297
	c-2.9072,0.2031-5.6201,0.5547-8.1338,1.0703C68.2969,18.416,66.3994,18.834,66.1875,18.9375z"/>
<path fill="#3E2A90" stroke="#3E2A90" stroke-width="0.5" stroke-miterlimit="10" d="M57.2188,0.25H45.6875v29.2227
	c3.7373,1.1855,7.6025,2.4727,11.5313,3.8418V0.25z"/>
<path fill="#3E2A90" stroke="#3E2A90" stroke-width="0.5" stroke-miterlimit="10" d="M36.957,26.8359
	c-0.6768-2.123-1.5723-3.9023-2.707-5.3047c-2.8154-3.4746-7.041-5.1699-12.7188-5.0938c-0.1367,0.0098-0.2705,0.0332-0.4063,0.0449
	c2.1045,2.5918,4.3105,5.2383,6.5898,7.9063C30.5986,25.0801,33.6953,25.9023,36.957,26.8359z"/>
<path fill="#B400C5" stroke="#B400C5" stroke-width="0.5" stroke-miterlimit="10" d="M57.2188,33.3145
	c-3.9287-1.3691-7.7939-2.6563-11.5313-3.8418V60.5h11.5313V33.3145z"/>
<path fill="#B400C5" stroke="#B400C5" stroke-width="0.5" stroke-miterlimit="10" d="M7.7637,22.9219
	C3.0771,26.4766,4.0742,51.752,7.6943,78.5938h4.0869v-17.75c0.0986,0.0293,0.8887,0.1426,2.375,0.3438s3.0898,0.3145,4.7813,0.3438
	c6.5762,0.1914,11.4883-1.3223,14.7188-4.5625c3.2295-3.2402,4.8223-9.3672,4.8125-18.3438
	c0.002-4.7324-0.5098-8.6484-1.5117-11.7891c-3.2617-0.9336-6.3584-1.7559-9.2422-2.4473
	C17.5635,21.957,10.0967,21.1543,7.7637,22.9219z M25,48.5c-1.2451,2.0547-3.5625,3.0957-6.9375,3.0625
	c-1.3164-0.0215-2.6504-0.1309-4.0313-0.2813s-2.1387-0.2285-2.25-0.25V28.4688c0.0918-0.0723,0.915-0.3418,2.4375-0.8438
	s3.2061-0.8027,5.0625-0.875c2.3076-0.0488,4.1084,0.8535,5.4375,2.6875c1.3281,1.834,2.0352,4.8887,2.0625,9.1875
	C26.8496,43.1543,26.2441,46.4453,25,48.5z"/>
<path fill="#2758B5" stroke="#2758B5" stroke-width="0.5" stroke-miterlimit="10" d="M121.4375,32.4063
	c-1.3018-0.4844-1.9092-1.1895-1.8125-2.125c-0.0605-1.1602,0.335-2.0254,1.1563-2.5938c0.7832-0.541,2.2988-0.8164,4.5479-0.8379
	c1.2129-4.2871,2.4736-7.75,3.752-10.1016c-1.5098-0.1426-2.9512-0.2305-4.2998-0.248c-4.6465-0.0391-8.5361,1.0605-11.6875,3.2813
	s-4.7793,5.7969-4.9063,10.75c0.0107,4.5977,1.1943,7.8242,3.5938,9.625c2.249,1.6875,5.5088,2.8555,9.7432,3.5234
	c0.7051-3.7871,1.4443-7.3496,2.2109-10.6152C122.7529,32.8281,121.9775,32.6074,121.4375,32.4063z"/>
<path fill="#2758B5" stroke="#2758B5" stroke-width="0.5" stroke-miterlimit="10" d="M120.25,51.0059
	c-0.5879-0.0469-1.1982-0.1016-1.8438-0.1621c-2.3359-0.2207-4.4326-0.4355-6.2813-0.6563s-2.8018-0.3574-2.9063-0.375
	l-0.3438,9.6563c0.0859,0.0254,1.0488,0.1992,2.875,0.5313c1.8271,0.332,3.9971,0.668,6.5313,1
	c0.1563,0.0215,0.3057,0.0352,0.4609,0.0547C119.2158,57.623,119.7197,54.2598,120.25,51.0059z"/>
<path fill="#2758B5" stroke="#2758B5" stroke-width="0.5" stroke-miterlimit="10" d="M73.123,26.5469
	C74.0342,26.5,74.9844,26.4531,76,26.4063c2.4922-0.1113,4.7305-0.1465,6.7188-0.1563c1.7178-0.0371,3.0078,0.2754,3.8438,0.9375
	s1.25,1.875,1.25,3.6875v2.6875L78.5938,34.25c-4.7705,0.2422-8.4756,1.2988-11.0938,3.1875s-3.9326,5.207-3.9688,9.9688
	c-0.0088,4.5801,1.084,8.0938,3.2813,10.5s5.5518,3.6074,10.0625,3.625c3.3516-0.125,6.2695-0.6211,8.75-1.5
	s3.7822-1.375,3.9063-1.5c1.7344,1.1797,3.5127,1.9785,5.3438,2.4063s4.1582,0.6191,6.9688,0.5938l0.3438-8.6875
	c-1.125-0.1953-1.8896-0.6035-2.25-1.2188s-0.5459-1.5723-0.5938-2.8438V30.875c0.0469-5.0098-1.1855-8.6699-3.6563-11
	c-2.4717-2.3301-6.4824-3.4648-12.0313-3.4375c-1.2646,0.0313-2.4834,0.0957-3.6787,0.1797
	C77.5762,19.9902,75.2754,23.3184,73.123,26.5469z M87.8125,50.7813c-0.1201,0.0566-1.0771,0.2852-2.8438,0.6875
	s-3.623,0.6309-5.5938,0.6875c-1.5313-0.0234-2.6318-0.4902-3.2813-1.4063s-0.9551-2.1582-0.9375-3.6875
	c0.0127-1.541,0.4395-2.6914,1.2813-3.4688c0.8408-0.7773,2.0117-1.2227,3.5313-1.3438l7.8438-0.6875V50.7813z"/>
<path fill="#C0ED19" stroke="#C0ED19" stroke-width="0.5" stroke-miterlimit="10" d="M296.0732,34.5391
	c4.2813,8.1211,6.6523,14.3887,5.7012,16.7617c-1.2246,3.0527-10.5801,6.2871-23.0918,9.0488
	c1.3457,0.2168,2.8242,0.4355,4.4727,0.6504c2.5352,0.332,4.916,0.5059,7.125,0.5313c5.4297,0.0488,9.6582-1.0078,12.6875-3.1875
	s4.5449-5.7617,4.5938-10.75c0.0605-4.25-0.9297-7.3652-3-9.3125C302.7881,36.6113,299.9541,35.3691,296.0732,34.5391z"/>
<path fill="#C0ED19" stroke="#C0ED19" stroke-width="0.5" stroke-miterlimit="10" d="M296.8115,27.1875
	c2.4219,0.2207,4.5703,0.4668,6.4375,0.6875s2.8379,0.3262,2.9375,0.3438l0.1875-9.5625c-0.0918-0.0273-1.0918-0.2168-2.9688-0.5625
	s-4.0898-0.6855-6.6563-1.0313c-2.5645-0.3457-4.9355-0.5352-7.0938-0.5625c-1.418-0.0117-2.7559,0.0957-4.0352,0.2949
	c2.207,3.459,4.2891,6.8477,6.1777,10.0762C293.2764,26.918,294.9443,27.0176,296.8115,27.1875z"/>
<path fill="#C0ED19" stroke="#C0ED19" stroke-width="0.5" stroke-miterlimit="10" d="M263.374,71.625
	c1.6465-2.2031,2.6582-5.1621,3.0293-8.8848c-3.959,0.6816-8.0508,1.3086-12.1602,1.8672c-0.207,0.5566-0.4512,1.0547-0.7441,1.4863
	c-1.1113,1.6484-3.4082,3.5547-6.8438,5.6875l4.5625,8.5313C257.0908,77.5176,261.1494,74.6035,263.374,71.625z"/>
<path fill="#367FC6" stroke="#367FC6" stroke-width="0.5" stroke-miterlimit="10" d="M142.6875,47.5938
	c0.0605-4.25-0.9307-7.3652-3-9.3125s-5.5684-3.3184-10.5-4.125c-2.2598-0.3965-4.0684-0.7598-5.4521-1.0918
	c-0.7666,3.2656-1.5059,6.8281-2.2109,10.6152c0.2842,0.0449,0.5586,0.0938,0.8506,0.1328c3.834,0.6152,6.3047,1.1992,7.4063,1.7813
	s1.5947,1.334,1.4688,2.25c0.0537,1.1191-0.4365,1.9727-1.4375,2.5313c-1.001,0.5605-2.8301,0.8438-5.5313,0.8438
	c-1.1357-0.0117-2.4873-0.0898-4.0313-0.2129c-0.5303,3.2539-1.0342,6.6172-1.5078,10.0488
	c2.3613,0.293,4.5908,0.4531,6.6641,0.4766c5.4287,0.0488,9.6582-1.0078,12.6875-3.1875S142.6387,52.582,142.6875,47.5938z"/>
<path fill="#367FC6" stroke="#367FC6" stroke-width="0.5" stroke-miterlimit="10" d="M125.6563,26.8438
	c1.7656,0.0176,3.8594,0.123,6.2813,0.3438s4.5703,0.4668,6.4375,0.6875s2.8369,0.3262,2.9375,0.3438l0.1875-9.5625
	c-0.0918-0.0273-1.0918-0.2168-2.9688-0.5625s-4.0908-0.6855-6.6563-1.0313c-0.9619-0.1289-1.8877-0.2285-2.7939-0.3145
	c-1.2783,2.3516-2.5391,5.8145-3.752,10.1016C125.4395,26.8477,125.542,26.8438,125.6563,26.8438z"/>
<path fill="#367FC6" stroke="#367FC6" stroke-width="0.5" stroke-miterlimit="10" d="M166.249,61.5313
	c1.6836-0.0527,3.5352-0.2793,5.5313-0.6563c0.0039,0,0.0059,0,0.0078,0c-6.6133-8.4063-13.1953-17.3691-18.9756-25.8633v10.1758
	C152.7207,51.293,153.6611,55.5547,155.624,58C157.5889,60.4473,161.1338,61.625,166.249,61.5313z"/>
<rect x="182.374" y="17.4688" fill="#42A0A1" stroke="#42A0A1" stroke-width="0.5" stroke-miterlimit="10" width="11.5313" height="43.0313"/>
<rect x="182.374" y="0.25" fill="#42A0A1" stroke="#42A0A1" stroke-width="0.5" stroke-miterlimit="10" width="11.5313" height="11.6875"/>
<path fill="#42A0A1" stroke="#42A0A1" stroke-width="0.5" stroke-miterlimit="10" d="M204.7803,21.7813
	c-2.8926,3.5957-4.3262,9.1934-4.2813,16.7813c-0.0449,6.4863,0.8711,11.5254,2.7012,15.168
	c1.8926-9.2793,6.4375-23.1094,11.8652-37.0742C210.5303,17.2109,207.0947,18.9043,204.7803,21.7813z"/>
<path fill="#42A0A1" stroke="#42A0A1" stroke-width="0.5" stroke-miterlimit="10" d="M175.0303,60.25l-0.5-9.2188
	c-0.1211,0.0078-0.918,0.043-2.375,0.0938c-1.4551,0.0508-2.8594,0.0859-4.1875,0.0938c-1.7324,0.0078-2.7793-0.5059-3.1563-1.5313
	s-0.5117-2.6367-0.4375-4.7813v-17.625h10.5625v-9.8125H164.374V5.5h-11.5615v11.9688H147.75v9.8125h5.0625v7.7305
	c5.7803,8.4941,12.3623,17.457,18.9756,25.8633C173.7803,60.498,174.8525,60.3047,175.0303,60.25z"/>
<path fill="#A0D349" stroke="#A0D349" stroke-width="0.5" stroke-miterlimit="10" d="M301.7744,51.3008
	c0.9512-2.373-1.4199-8.6406-5.7012-16.7617c-0.6445-0.1387-1.3086-0.2676-2.0117-0.3828c-3.8633-0.6777-6.4473-1.2656-7.75-1.75
	c-1.3008-0.4844-1.9082-1.1895-1.8125-2.125c-0.0605-1.1602,0.3359-2.0254,1.1563-2.5938c0.8223-0.5684,2.4395-0.8457,4.875-0.8438
	c0.4043,0.0039,0.8301,0.0137,1.2676,0.0273c-1.8887-3.2285-3.9707-6.6172-6.1777-10.0762
	c-2.9082,0.4551-5.4629,1.4434-7.6523,2.9863c-3.1504,2.2207-4.7793,5.7969-4.9063,10.75c0.0117,4.5977,1.1953,7.8242,3.5938,9.625
	c2.4004,1.8008,5.9355,3.0176,10.5938,3.6563c3.834,0.6152,6.3047,1.1992,7.4063,1.7813s1.5957,1.334,1.4688,2.25
	c0.0547,1.1191-0.4355,1.9727-1.4375,2.5313c-1,0.5605-2.8301,0.8438-5.5313,0.8438c-1.5684-0.0176-3.5371-0.1543-5.875-0.375
	c-2.3359-0.2207-4.4316-0.4355-6.2813-0.6563c-1.8477-0.2207-2.8008-0.3574-2.9063-0.375l-0.3438,9.6563
	c0.0859,0.0254,1.0488,0.1992,2.875,0.5313c0.6387,0.1172,1.334,0.2324,2.0586,0.3496
	C291.1943,57.5879,300.5498,54.3535,301.7744,51.3008z"/>
<path fill="#A0D349" stroke="#A0D349" stroke-width="0.5" stroke-miterlimit="10" d="M266.5615,58.5313V17.4688H254.999v40.9688
	c0.0684,2.5566-0.1777,4.6074-0.7559,6.1699c4.1094-0.5586,8.2012-1.1855,12.1602-1.8672
	C266.5342,61.4316,266.5908,60.0313,266.5615,58.5313z"/>
<rect x="238.374" y="50.2188" fill="#A0D349" stroke="#A0D349" stroke-width="0.5" stroke-miterlimit="10" width="10.4063" height="10.2813"/>
<path fill="#A0D349" stroke="#A0D349" stroke-width="0.5" stroke-miterlimit="10" d="M232.0928,50.5313
	c-0.2109,0.0293-1.4512,0.1426-3.75,0.3438s-4.3711,0.3145-6.2188,0.3438c-4.0273,0.0762-6.7246-0.8359-8.0625-2.7188
	s-1.9473-5.1914-1.8438-9.9375c-0.1074-4.2578,0.5-7.2988,1.8125-9.125s3.9766-2.7344,8-2.6875
	c1.8516,0.0293,3.9258,0.1426,6.25,0.3438s3.5977,0.3145,3.8125,0.3438l0.3438-9.125c-0.2617-0.0781-1.918-0.3848-5-0.9375
	c-3.0801-0.5527-6.0234-0.8594-8.7813-0.9375c-1.2734-0.0059-2.457,0.0801-3.5898,0.2188
	c-5.4277,13.9648-9.9727,27.7949-11.8652,37.0742c0.4375,0.8711,0.9121,1.6875,1.4551,2.3945
	c2.8184,3.6699,7.3926,5.4609,13.75,5.4063c1.6914-0.0215,3.6191-0.1777,5.7813-0.4688s4.0605-0.584,5.6875-0.875
	s2.4785-0.4473,2.5625-0.4688L232.0928,50.5313z"/>
<rect x="254.999" y="0.25" fill="#A0D349" stroke="#A0D349" stroke-width="0.5" stroke-miterlimit="10" width="11.5625" height="11.6875"/>
</svg>
